<mxfile host="app.diagrams.net" modified="2024-08-01T12:17:33.483Z" agent="Mozilla/5.0 (Macintosh; Intel Mac OS X 10_15_7) AppleWebKit/537.36 (KHTML, like Gecko) Chrome/126.0.0.0 Safari/537.36" version="24.2.5" etag="a5uhpTngJmuv5ry-qhoz" type="github">
  <diagram name="Page-1" id="A7k74kE_RhITa8ARLkci">
    <mxGraphModel>
      <root>
        <mxCell id="0" />
        <mxCell id="1" parent="0" />
      </root>
    </mxGraphModel>
  </diagram>
</mxfile>
